<svg viewBox="0 0 128 18" xmlns="http://www.w3.org/2000/svg" fill-rule="evenodd" clip-rule="evenodd" stroke-linejoin="round" stroke-miterlimit="2">
<desc><title>Legicoop</title></desc>
<path d="M3.689 0H0v17.832h11.027v-3.698H3.689V0zM14.701 17.836h12.282v-3.667H18.36v-3.751h5.252V6.75H18.36V3.669h8.624V0H14.701v17.836zM48.451.004v17.83h3.674V.003h-3.674zM80.68 13.856a4.938 4.938 0 01-.032-9.876 4.938 4.938 0 01.032 9.876m8.861-4.961C89.53 3.989 85.544.023 80.638.029V.028h-.013a8.89 8.89 0 00.05 17.78h.037v-.001c4.893-.032 8.844-4.013 8.83-8.912M39.564 3.968a4.95 4.95 0 10.008 9.901h.003a4.94 4.94 0 001.532-.244v-3.69h3.67v6.228h-.01a8.864 8.864 0 01-5.193 1.665h-.001a8.907 8.907 0 01-8.915-8.902h-.001A8.912 8.912 0 0139.562.008h.011a8.868 8.868 0 015.204 1.672l-2.218 3.285a4.937 4.937 0 00-2.984-.997M97.634 15.42l-1.13 1.638a8.955 8.955 0 0110.181-14.735l-1.13 1.636.001.002a4.977 4.977 0 01-5.659 8.185l1.132-1.638a2.987 2.987 0 004.153-.758 2.987 2.987 0 00-.759-4.153 4.975 4.975 0 00-5.655 8.187v-.002a6.961 6.961 0 009.686-1.77h.001a6.963 6.963 0 00-1.769-9.69l1.131-1.637c4.067 2.812 5.088 8.389 2.277 12.458-2.813 4.069-8.39 5.088-12.458 2.277h-.002zM64.672.004a8.814 8.814 0 015.178 1.664l-2.206 3.268a4.924 4.924 0 00-2.97-.99h-.01a4.928 4.928 0 00-4.924 4.93 4.928 4.928 0 004.93 4.922h.003c1.115 0 2.145-.37 2.971-.992l2.206 3.27a8.832 8.832 0 01-5.177 1.663A8.866 8.866 0 0155.8 8.88 8.866 8.866 0 0164.66.003M123.664 6.53a1.658 1.658 0 01-1.152.485h-4.035V3.7h4.155a1.656 1.656 0 011.518 1.655c0 .46-.185.874-.486 1.175m-.798-6.51V.001H114.778v17.836h3.7v-7.122h4.388v-.026a5.35 5.35 0 004.977-5.335A5.35 5.35 0 00122.866.02" fill="#46689f" fill-rule="nonzero"></path>
</svg>